<svg xmlns="http://www.w3.org/2000/svg" width="848.963" height="872.547">
<path fill="#FFFFFF" d="M59.887 871.485c0-.584 2.317-7.934 5.148-16.333 19.727-58.513 53.647-123.355 94.247-180.163 38.25-53.52 91.726-108.626 137.552-141.747 6.021-4.351 10.718-8.141 10.438-8.421s-10.898 4.78-23.596 11.245c-31.543 16.059-61.465 36.356-87.788 59.548-13.875 12.225-47.652 46.558-57.761 58.713-28.63 34.423-55.311 77.47-76.332 123.152l-7.479 15.756c-1.129 1.136 1.638-45.922 3.52-59.868 8.907-66.002 36.596-142.432 77.254-213.248 17.251-30.046 43.064-68.471 53.23-79.238 7.997-8.469 1.029-4.144-13.653 8.474-30.228 25.978-59.456 62.551-84.068 105.193-15.901 27.549-43.238 88.403-58.399 130-9.582 26.291-17.645 51.075-17.645 54.242 0 1.43-.465 1.815-1.236 1.025-.68-.697-1.931-13.015-2.779-27.375-3.363-56.918 6.024-115.327 28.496-177.308 10.14-27.969 27.429-65.32 38.843-83.917 5.407-8.809 4.829-8.646-4.709 1.333-19.585 20.49-51.856 60.959-67.366 84.478-2.833 4.296-5.379 7.13-5.656 6.296-1.088-3.265 4.161-37.286 8.418-54.555 10.826-43.914 29.547-87.073 56.894-131.162 10.568-17.037 39.61-56.866 44.915-61.599 14.529-12.959-27.167 9.9-59.998 32.892l-14.179 9.93 4.746-8.141c21.77-37.342 51.417-75.286 89.269-114.249l19.286-19.852-3.805-1.475c-2.093-.811-8.005-2.973-13.139-4.804-27.309-9.741-60.112-28.9-84.668-49.45-11.023-9.225-30.665-29.356-30.665-31.428 0-.395 6.194 1.877 13.765 5.049 32.235 13.505 85.695 28.447 130.568 36.494 7.883 1.414 14.32 2.196 14.303 1.739s-5.318-3.099-11.781-5.871c-15.412-6.61-43.861-23.633-59.938-35.866-33.667-25.616-61.132-58.408-82.997-99.095C14.692-.12 14.324-1.225 17.466.825c11.589 7.562 42.108 24.277 60.421 33.092 36.626 17.63 69.22 30.075 109.974 41.99 33.386 9.761 87.714 22.73 89.159 21.284.263-.263-5.07-3.265-11.852-6.671-31.611-15.876-61.881-38.587-82.645-62.008l-8.331-9.397 10.514 4.895c38.99 18.153 70.726 29.574 120.514 43.368 26.152 7.246 49.463 12.547 104.667 23.802 139.498 28.442 209.842 54.77 274 102.552 40.202 29.941 64 63.969 64 91.514v8.217l17.115 11.401c59.837 39.861 81.938 70.007 83.83 114.348 1.792 42.015-14.639 82.354-48.967 120.214l-9.977 11.004-.853-18.609c-1.645-35.905-8.658-47.653-31.779-53.235-11.351-2.74-57.453-9.417-79.031-11.446l-16.949-1.594-10.347 5.833c-15.12 8.524-30.904 24.435-36.932 37.229-10.238 21.73-8.907 44.596 4.031 69.27 20.472 39.042 92.012 100.438 156.969 134.71l14.443 7.62-19.11 3.646-42.162 7.976-23.052 4.33-12.232-7.002c-34.815-19.93-70.233-52.234-96.03-87.587-5.206-7.135-9.675-12.764-9.93-12.509-.902.902 12.506 30.953 17.987 40.312 15.308 26.141 38.053 50.438 63.24 67.557l8.931 6.07-50.264 12.214c-84.364 20.501-123.789 31.562-190.931 53.566-25.312 8.295-88.26 30.526-110.448 39.006-6.846 2.616-12.846 4.735-13.333 4.707-.965-.054 1.55-2.347 23.191-21.142 33.967-29.5 80.412-60.658 126.59-84.925 18.492-9.718 72.639-35.568 96-45.831 8.8-3.866 16.497-7.486 17.104-8.045 1.538-1.415-35.232 8.21-53.77 14.075-71.752 22.7-169.33 78.161-264.134 150.127l-20.801 15.79H223.42c-7.076 0-12.866-.46-12.866-1.021s3.553-7.172 7.896-14.689c34.985-60.554 105.758-134.965 182.77-192.166 20.908-15.529 63.953-44.244 83.015-55.378 8.625-5.038 15.507-9.335 15.292-9.549-1.379-1.379-46.302 17.431-69.938 29.285-68.897 34.553-134.474 82.768-195.09 143.438-31.623 31.651-50.437 53.242-71.739 82.324l-12.875 17.577-45 .09c-24.75.049-45-.389-45-.973zm750.72-380.081c14.502-36.146 17.638-69.473 9.13-97.034-11.493-37.233-36.953-63.618-96.269-99.766l-17.086-10.412-4.713 4.512c-2.592 2.481-13.897 15.912-25.122 29.845-24.48 30.387-42.108 49.077-49.003 51.954-2.755 1.15-18.955 5.403-36 9.453-34.507 8.198-52.669 13.226-72.035 19.94-15.943 5.527-42.351 15.702-41.907 16.146.178.178 6.015-.532 12.971-1.579 89.856-13.522 190.533-7.314 248.894 15.347 24.132 9.37 44.038 25.968 52.86 44.073 4.746 9.74 8.84 25.184 8.947 33.754l.053 4.246 2.048-3.779c1.127-2.079 4.381-9.593 7.231-16.698zm-120-144.021c7.671-4.942 16.521-10.425 19.666-12.185l5.719-3.2 4.862 2.608c7.251 3.89 15.033 9.77 15.033 11.358 0 2.501-11.528 6.581-22.223 7.864-5.744.689-16.42 1.543-23.724 1.896l-13.281.643zm57.28 112.407c0-1.874-34.167-16.827-48-21.006-37.095-11.207-66.808-15.378-117.44-16.484-23.325-.51-37.636-.321-39.131.516-1.767.989.499 1.539 9.041 2.196 15.224 1.17 44.998 6.419 69.531 12.258 35.867 8.536 76.017 15.967 125 23.133.55.081 1-.195 1-.612zM526.148 325.903c8.851-3.915 17.35-11.33 22.991-20.057 4.359-6.744 5.215-7.431 7.985-6.407 4.65 1.72 29.693 7.962 30.112 7.505 1.105-1.206-51.551-34.9-64.597-41.335-25.166-12.413-61.483-22.939-82.38-23.878l-7.704-.346L433 253.3c.245 6.553 1.283 16.114 2.306 21.248 4.921 24.689 22.843 44.967 46.581 52.709 12.904 4.208 33.083 3.591 44.261-1.353zM413.221 219.991c0-.889-27.654-9.746-39.333-12.598-8.924-2.179-27.519-5.586-40.434-7.41-7.335-1.036.064 1.686 10.434 3.838 6.233 1.294 23.633 5.502 38.667 9.352 28.128 7.203 30.667 7.768 30.667 6.818z"/>
</svg>
